<svg width="298" height="420" xmlns="http://www.w3.org/2000/svg"><polygon fill="#EFC725" points="27 386 0 83 298 83 271 386 149 420 "/><polygon fill="#FBDE34" points="149 394 248 367 271 107 149 107 "/><path fill="#FFFFFF" d="m227 159"/><polygon points="149 220 100 220 96 182 149 182 149 145 149 145 55 145 56 155 65 257 149 257 " fill="#EBEBEB"/><polygon points="149 317 149 317 107 305 105 276 84 276 67 276 72 334 149 355 149 355 " fill="#EBEBEB"/><polygon points="149 220 149 257 195 257 190 305 149 317 149 355 225 334 226 328 234 230 235 220 225 220 " fill="#FFFFFF"/><polygon points="149 145 149 168 149 182 149 182 239 182 239 182 239 182 240 173 241 155 242 145 " fill="#FFFFFF"/><polygon fill="#151515" points="202 16 177 16 203 43 203 57 150 57 150 41 175 41 150 13 150 0 202 0 202 16 "/><path fill="#020202" d="m140 0v57h-46v-19h27v-38h19 0l0 0z"/><path fill="#FFFFFF" d="m226 159"/><title>Layer 1</title></svg>